<svg width="937" height="114" viewBox="0 0 937 114" fill="none" xmlns="http://www.w3.org/2000/svg">
<path d="M928.313 4.7385V112.308H906.198L852.019 10.1091V109.307H860.707V112.308H839.066V109.307H847.754V4.7385H839.066V1.7373H882.663L924.048 81.0321V4.7385H915.36V1.7373H937V4.7385H928.313Z" fill="#818181"/>
<path d="M782.571 110.728C787.731 110.728 790.995 109.781 792.364 107.885C793.838 105.99 794.575 102.778 794.575 98.2497V67.6059H784.466V64.1308H829.958V67.6059H823.798V112.15H821.428C819.533 109.517 816.847 108.201 813.372 108.201C811.898 108.201 807.475 109.149 800.104 111.044C792.838 112.94 786.625 113.888 781.465 113.888C764.3 113.888 750.979 109.254 741.502 99.9873C732.129 90.7204 727.443 76.8201 727.443 58.2864C727.443 39.6474 732.34 25.2732 742.133 15.1639C752.032 5.05465 765.301 0 781.939 0C788.362 0 794.786 0.842438 801.21 2.52732C807.739 4.1069 811.53 4.89669 812.583 4.89669C813.636 4.89669 814.425 4.68608 814.952 4.26486C815.478 3.73833 816.058 2.89589 816.69 1.73753H818.427L819.691 36.0144H816.847C811.687 25.7998 806.475 17.7966 801.21 12.0048C796.05 6.1077 790.258 3.15915 783.834 3.15915C767.723 3.15915 759.667 18.9023 759.667 50.3885V62.8672C759.667 78.663 761.615 90.6151 765.511 98.7236C769.513 106.727 775.199 110.728 782.571 110.728Z" fill="#818181"/>
<path d="M668.77 1.7373H716.947V4.7385H708.259V109.307H716.947V112.308H668.77V109.307H677.457V4.7385H668.77V1.7373Z" fill="#818181"/>
<path d="M621.442 110.57C626.707 110.57 631.34 109.149 635.342 106.306C639.449 103.462 641.502 99.1975 641.502 93.511C641.502 87.7192 639.291 83.2964 634.868 80.2425C630.55 77.1887 624.338 74.5561 616.229 72.3447C608.226 70.0279 602.381 68.0271 598.696 66.3423C595.115 64.6574 591.693 62.446 588.428 59.708C581.899 54.2322 578.635 45.7551 578.635 34.2768C578.635 24.9047 581.952 16.8488 588.586 10.1093C595.326 3.36976 604.487 0 616.071 0C621.652 0 627.444 0.842438 633.446 2.52732C639.554 4.1069 643.345 4.89669 644.819 4.89669C646.294 4.89669 647.61 3.84364 648.768 1.73753H650.506L651.612 33.645H649.084C644.03 24.4834 638.712 17.1647 633.13 11.6889C627.655 6.10769 621.652 3.31711 615.123 3.31711C608.7 3.31711 603.698 4.84403 600.117 7.89789C596.537 10.8464 594.747 14.848 594.747 19.9027C594.747 24.852 596.853 28.6957 601.065 31.4336C605.383 34.0662 610.648 36.225 616.861 37.9099C623.074 39.5947 627.128 40.7531 629.024 41.3849C631.024 42.0168 633.446 42.9119 636.29 44.0702C639.238 45.1233 641.608 46.2816 643.398 47.5453C645.293 48.7036 647.241 50.2306 649.242 52.1261C651.348 53.9162 652.98 55.917 654.139 58.1285C656.982 63.1831 658.404 69.1855 658.404 76.1356C658.404 87.5086 654.823 96.6701 647.663 103.62C640.607 110.465 631.288 113.888 619.704 113.888C613.702 113.888 606.804 113.098 599.012 111.518C591.324 109.939 587.059 109.149 586.217 109.149C584.743 109.149 583.321 110.728 581.952 113.888H579.741L578.161 76.2936H580.846C585.48 85.4551 591.377 93.4583 598.538 100.303C605.804 107.148 613.438 110.57 621.442 110.57Z" fill="#818181"/>
<path d="M476.396 1.7373H558.535L560.114 33.0129H557.271C552.848 22.3771 548.215 15.1111 543.371 11.2148C538.527 7.21317 531.418 5.21238 522.046 5.21238H516.518V54.0213H521.888C526.838 54.0213 530.997 52.1785 534.367 48.4928C537.737 44.7018 540.106 39.6472 541.475 33.3289H543.844V80.0844H541.159C539.264 72.1865 536.684 66.5526 533.419 63.1829C530.26 59.8131 525.89 58.1282 520.309 58.1282H516.518V108.833H522.52C532.208 108.833 540.422 105.937 547.162 100.145C554.006 94.3532 558.693 86.9292 561.22 77.8729H564.379L563.115 112.308H476.396V108.833H485.716V5.21238H476.396V1.7373Z" fill="#818181"/>
<path d="M466.621 55.127C466.621 76.8199 460.513 91.9312 448.298 100.461C437.03 108.359 421.55 112.308 401.858 112.308H357.156V109.307H367.581V4.7385H357.156V1.7373H405.965C426.184 1.7373 441.348 5.89686 451.457 14.216C461.566 22.4298 466.621 36.0668 466.621 55.127ZM398.383 109.307H404.386C415.021 109.307 422.603 105.568 427.132 98.0915C431.765 90.5096 434.082 77.8729 434.082 60.1817V51.0201C434.082 27.3265 429.554 13.0576 420.497 8.21357C416.18 5.89686 410.072 4.7385 402.174 4.7385H398.383V109.307Z" fill="#818181"/>
<path d="M286.434 63.499V51.8101C286.434 32.5393 285.486 20.3765 283.591 15.3219C281.485 9.53011 278.483 5.94974 274.587 4.58077C272.376 3.73833 269.69 3.31711 266.531 3.31711C263.372 3.31711 260.634 3.73833 258.318 4.58077C256.106 5.42321 254.263 6.89749 252.789 9.00359C251.315 11.1097 250.104 13.3211 249.156 15.6378C248.314 17.9545 247.629 21.219 247.103 25.4312C246.471 31.5389 246.155 40.5425 246.155 52.442V63.8149C246.155 76.6622 246.629 85.8237 247.576 91.2996C248.629 96.6701 249.893 100.514 251.367 102.83C254.632 107.99 259.686 110.57 266.531 110.57C274.85 110.57 280.221 107.095 282.643 100.145C285.17 93.0898 286.434 80.8744 286.434 63.499ZM266.215 113.888C248.629 113.888 235.466 109.149 226.726 99.6713C218.091 90.0886 213.773 76.2936 213.773 58.2864C213.773 40.1739 218.407 25.9577 227.674 15.6378C237.046 5.2126 250.262 0 267.321 0C284.381 0 297.228 4.94934 305.863 14.848C314.603 24.6414 318.973 38.5943 318.973 56.7068C318.973 74.8193 314.55 88.8776 305.705 98.8816C296.965 108.886 283.801 113.888 266.215 113.888Z" fill="#E7E7E7"/>
<path d="M111.097 1.7373H157.536C173.437 1.7373 185.284 4.05402 193.077 8.68745C200.869 13.2156 204.766 21.3767 204.766 33.1709C204.766 46.2287 200.027 55.2323 190.549 60.1817C181.704 64.7098 169.33 66.9739 153.429 66.9739H152.166V109.307H171.91V112.308H111.097V109.307H121.364V4.7385H111.097V1.7373ZM152.166 4.7385V63.9727H155.483C161.801 63.9727 166.171 61.8139 168.593 57.4964C171.015 53.1789 172.226 46.1761 172.226 36.488V28.906C172.226 19.9551 171.068 13.6894 168.751 10.1091C166.54 6.52869 162.433 4.7385 156.431 4.7385H152.166Z" fill="#E7E7E7"/>
<path d="M67.29 109.307L55.7591 75.1878H24.4835L12.3207 109.307H24.1675V112.308H0V109.307H7.42401L47.7032 0.789673H60.6558L100.461 109.307H107.727V112.308H56.075V109.307H67.29ZM40.7531 30.3278L25.9051 71.7127H54.4954L40.7531 30.3278Z" fill="#E7E7E7"/>
</svg>
