<svg width="356" height="44" viewBox="0 0 356 44" fill="none" xmlns="http://www.w3.org/2000/svg">
<path d="M351.887 1.7962V42.5714H343.504L322.967 3.83197V41.4338H326.26V42.5714H318.057V41.4338H321.35V1.7962H318.057V0.658569H334.583L350.27 30.7161V1.7962H346.977V0.658569H355.18V1.7962H351.887Z" fill="#C1C1C1"/>
<path d="M296.642 41.9727C298.598 41.9727 299.835 41.6135 300.354 40.895C300.913 40.1765 301.193 38.959 301.193 37.2426V25.6267H297.361V24.3095H314.605V25.6267H312.27V42.5116H311.371C310.653 41.5137 309.635 41.0147 308.318 41.0147C307.759 41.0147 306.082 41.374 303.288 42.0925C300.534 42.811 298.179 43.1703 296.223 43.1703C289.716 43.1703 284.667 41.4139 281.074 37.9012C277.522 34.3885 275.745 29.1195 275.745 22.0941C275.745 15.0288 277.602 9.58008 281.314 5.74805C285.066 1.91602 290.096 0 296.403 0C298.837 0 301.272 0.319335 303.707 0.958006C306.182 1.55676 307.619 1.85614 308.018 1.85614C308.418 1.85614 308.717 1.77631 308.917 1.61664C309.116 1.41705 309.336 1.09772 309.575 0.658629H310.234L310.713 13.6516H309.635C307.679 9.77967 305.703 6.74597 303.707 4.55054C301.751 2.31519 299.556 1.19751 297.121 1.19751C291.014 1.19751 287.96 7.1651 287.96 19.1003V23.8305C287.96 29.818 288.699 34.3486 290.175 37.4222C291.692 40.4559 293.848 41.9727 296.642 41.9727Z" fill="#C1C1C1"/>
<path d="M253.504 0.658569H271.766V1.7962H268.472V41.4338H271.766V42.5714H253.504V41.4338H256.797V1.7962H253.504V0.658569Z" fill="#C1C1C1"/>
<path d="M235.564 41.9129C237.56 41.9129 239.317 41.374 240.833 40.2962C242.39 39.2185 243.169 37.6018 243.169 35.4463C243.169 33.2509 242.33 31.5744 240.654 30.4168C239.017 29.2592 236.662 28.2612 233.588 27.423C230.555 26.5448 228.339 25.7864 226.942 25.1477C225.585 24.5091 224.288 23.6708 223.05 22.633C220.576 20.5573 219.338 17.3439 219.338 12.993C219.338 9.44038 220.595 6.38672 223.11 3.83203C225.665 1.27734 229.138 0 233.529 0C235.644 0 237.84 0.319335 240.115 0.958006C242.43 1.55676 243.867 1.85614 244.426 1.85614C244.985 1.85614 245.484 1.45697 245.923 0.658629H246.581L247.001 12.7535H246.043C244.127 9.2807 242.111 6.50647 239.995 4.43079C237.919 2.31518 235.644 1.25738 233.169 1.25738C230.734 1.25738 228.838 1.83618 227.481 2.99378C226.124 4.11145 225.445 5.6283 225.445 7.54431C225.445 9.42041 226.244 10.8774 227.84 11.9152C229.477 12.9132 231.473 13.7315 233.828 14.3701C236.183 15.0088 237.72 15.4479 238.438 15.6874C239.197 15.9269 240.115 16.2662 241.193 16.7053C242.31 17.1044 243.208 17.5435 243.887 18.0225C244.606 18.4616 245.344 19.0404 246.102 19.7589C246.901 20.4375 247.519 21.1959 247.959 22.0342C249.036 23.9502 249.575 26.2255 249.575 28.86C249.575 33.171 248.218 36.6438 245.504 39.2783C242.829 41.873 239.297 43.1703 234.906 43.1703C232.63 43.1703 230.016 42.8709 227.062 42.2721C224.148 41.6734 222.531 41.374 222.212 41.374C221.653 41.374 221.114 41.9727 220.595 43.1703H219.757L219.158 28.9199H220.176C221.933 32.3927 224.168 35.4264 226.882 38.021C229.637 40.6156 232.531 41.9129 235.564 41.9129Z" fill="#C1C1C1"/>
<path d="M180.583 0.658569H211.718L212.317 12.5139H211.239C209.563 8.4823 207.807 5.72803 205.97 4.2511C204.134 2.73425 201.44 1.97583 197.887 1.97583H195.792V20.4774H197.827C199.703 20.4774 201.28 19.7788 202.558 18.3817C203.835 16.9447 204.733 15.0287 205.252 12.6337H206.15V30.3568H205.132C204.414 27.3631 203.436 25.2275 202.198 23.9501C201.001 22.6728 199.344 22.0341 197.229 22.0341H195.792V41.2542H198.067C201.739 41.2542 204.853 40.1565 207.407 37.961C210.002 35.7656 211.778 32.9514 212.736 29.5186H213.934L213.455 42.5714H180.583V41.2542H184.116V1.97583H180.583V0.658569Z" fill="#C1C1C1"/>
<path d="M176.878 20.8965C176.878 29.1194 174.563 34.8475 169.932 38.0808C165.661 41.0745 159.793 42.5714 152.329 42.5714H135.384V41.4338H139.336V1.7962H135.384V0.658569H153.886C161.55 0.658569 167.298 2.23529 171.13 5.38874C174.962 8.50226 176.878 13.6715 176.878 20.8965ZM151.012 41.4338H153.287C157.319 41.4338 160.193 40.0168 161.909 37.1826C163.665 34.3086 164.544 29.5186 164.544 22.8125V19.3397C164.544 10.3584 162.827 4.94965 159.394 3.11347C157.758 2.23529 155.442 1.7962 152.449 1.7962H151.012V41.4338Z" fill="#C1C1C1"/>
<path d="M108.576 24.07V19.6392C108.576 12.3344 108.217 7.72394 107.498 5.80792C106.7 3.61249 105.562 2.25531 104.085 1.73639C103.247 1.41705 102.229 1.25738 101.032 1.25738C99.834 1.25738 98.7962 1.41705 97.918 1.73639C97.0797 2.05573 96.3812 2.61456 95.8223 3.4129C95.2635 4.21125 94.8045 5.0495 94.4452 5.92768C94.1259 6.80585 93.8664 8.04328 93.6668 9.63996C93.4273 11.9551 93.3076 15.3681 93.3076 19.8787V24.1897C93.3076 29.0596 93.4872 32.5324 93.8464 34.6081C94.2456 36.6438 94.7246 38.1008 95.2835 38.979C96.5209 40.9349 98.4369 41.9129 101.032 41.9129C104.185 41.9129 106.221 40.5956 107.139 37.9611C108.097 35.2866 108.576 30.6563 108.576 24.07ZM100.912 43.1703C94.2456 43.1703 89.256 41.374 85.9429 37.7815C82.6697 34.149 81.0331 28.9199 81.0331 22.0941C81.0331 15.2283 82.7894 9.83955 86.3021 5.92768C89.8547 1.97589 94.8643 0 101.331 0C107.797 0 112.667 1.8761 115.941 5.6283C119.254 9.34058 120.91 14.6296 120.91 21.4953C120.91 28.361 119.234 33.69 115.881 37.4821C112.568 41.2742 107.578 43.1703 100.912 43.1703Z" fill="black"/>
<path d="M42.1126 0.658569H59.716C65.7435 0.658569 70.2341 1.53674 73.188 3.29309C76.1419 5.00952 77.6188 8.10309 77.6188 12.5738C77.6188 17.5235 75.8225 20.9364 72.23 22.8125C68.877 24.5289 64.1867 25.3872 58.1592 25.3872H57.6802V41.4338H65.1647V42.5714H42.1126V41.4338H46.0045V1.7962H42.1126V0.658569ZM57.6802 1.7962V24.2495H58.9376C61.3327 24.2495 62.9892 23.4312 63.9073 21.7946C64.8254 20.158 65.2844 17.5036 65.2844 13.8312V10.9572C65.2844 7.56422 64.8454 5.18915 63.9672 3.83197C63.1289 2.47479 61.5722 1.7962 59.2969 1.7962H57.6802Z" fill="black"/>
<path d="M25.507 41.4338L21.1361 28.5007H9.28071L4.67029 41.4338H9.16096V42.5714H0V41.4338H2.81415L18.0824 0.299316H22.9922L38.0808 41.4338H40.8351V42.5714H21.2558V41.4338H25.507ZM15.4479 11.496L9.81959 27.1834H20.6571L15.4479 11.496Z" fill="black"/>
</svg>
